    <svg
      xmlns="http://www.w3.org/2000/svg"
      width="512"
      height="512"
      version="1.1"
      viewBox="0 0 512 512"
    >
      <g>
        <path
          fill="#fff"
          fillOpacity="1"
          d="M113.29 425.535c-2.658-1.163-12.66-15.583-58.25-83.983C13.178 278.742 0 258.262 0 256c0-2.261 13.177-22.744 55.043-85.556 48.035-72.067 55.484-82.766 58.505-84.029 2.986-1.247 28.867-1.41 188.207-1.18 176.726.253 184.95.345 189.49 2.107 6.616 2.57 14.1 9.625 17.455 16.455l2.8 5.703v293l-2.8 5.703c-3.355 6.83-10.84 13.886-17.456 16.455-4.54 1.763-12.708 1.851-189.744 2.061-156.967.186-185.486.007-188.21-1.184zm372.493-22.096C491.29 399.582 491 407.79 491 256c0-151.79.29-143.582-5.217-147.44-2-1.4-20.755-1.557-182.756-1.532l-180.527.027-49 73.605c-26.95 40.482-49 74.385-49 75.34 0 .955 22.05 34.858 49 75.34l49 73.604 180.527.028c162 .025 180.757-.132 182.756-1.533zM282.5 340.894c-3.731-2.154-5.455-5.257-5.478-9.861l-.022-4.468 35.231-35.282L347.462 256l-35.23-35.283L277 185.435v-4.253c0-5.088 2.044-8.543 6.032-10.195 6.606-2.736 7.191-2.275 44.467 35.012L362.49 241l34.506-34.395c18.978-18.917 35.488-34.892 36.69-35.5 7.754-3.923 17.303 4.425 14.298 12.501-.599 1.61-16.463 18.304-35.767 37.637l-34.692 34.743 35.173 35.257c21.311 21.362 35.418 36.258 35.794 37.796.688 2.817-.792 7.53-3.198 10.19-2.109 2.33-7.694 3.262-11.1 1.851-1.524-.631-18.277-16.658-37.227-35.614L362.51 271l-35.083 35.072c-32.454 32.444-35.376 35.106-39.005 35.525-2.158.248-4.823-.068-5.923-.703z"
        ></path>
      </g>
    </svg>